<svg width="124" height="auto" viewBox="0 0 146 124" class="max-w-[50%] md:max-w-[80%]" fill="none" xmlns="http://www.w3.org/2000/svg"><path d="M17.5143 114.017H0.773286C0.620464 114.017 0.471076 113.971 0.344437 113.885C0.217798 113.8 0.119707 113.678 0.0627988 113.536C0.00589094 113.394 -0.00720248 113.238 0.0251891 113.089C0.0575808 112.939 0.133964 112.803 0.244517 112.697L108.646 9.58623C114.088 3.65695 123.581 4.34461e-07 131.244 4.34461e-07H145.236C145.389 -0.000162559 145.538 0.0455399 145.665 0.131187C145.791 0.216835 145.889 0.338499 145.946 0.480505C146.003 0.622511 146.016 0.778343 145.984 0.927877C145.952 1.07741 145.875 1.21381 145.765 1.31945L35.6626 106.605C31.2781 111.353 23.4363 114.017 17.5143 114.017ZM120.01 91.0813C116.855 91.07 113.766 91.9966 111.137 93.7438C108.508 95.491 106.455 97.9802 105.24 100.896C104.024 103.812 103.7 107.024 104.309 110.124C104.918 113.224 106.432 116.074 108.659 118.312C110.887 120.55 113.728 122.077 116.822 122.697C119.916 123.318 123.125 123.005 126.042 121.798C128.958 120.592 131.452 118.546 133.206 115.919C134.961 113.293 135.897 110.204 135.897 107.045C135.897 102.815 134.221 98.7585 131.236 95.7655C128.251 92.7724 124.202 91.0877 119.978 91.0813H120.01Z" fill="#F22613"></path></svg>