<svg width="388" height="388" viewBox="0 0 1788 388" fill="none" xmlns="http://www.w3.org/2000/svg">
<g clip-path="url(#clip0_1599_116)">
<path d="M345.34 304.289C342.008 308.922 338.594 313.474 335.099 317.944C331.604 322.415 327.865 326.641 323.882 330.624C312.503 342.572 299.417 352.814 285.03 360.942C278.04 365.25 270.725 369.07 263.166 372.402C255.444 375.735 247.397 378.58 239.269 380.855C222.769 385.407 205.701 387.764 188.55 387.846C163.435 388.008 138.482 382.888 115.398 372.89C70.206 353.627 34.1988 317.619 14.9353 272.427C-4.97843 225.691 -4.97843 172.859 14.9353 126.122C24.6889 103.852 38.3441 83.4502 55.2504 65.8936C72.807 48.9873 93.1271 35.3322 115.479 25.5785C138.563 15.581 163.435 10.4603 188.632 10.6229C205.782 10.6229 222.851 12.98 239.351 17.613C255.363 22.0022 270.806 28.5859 285.112 37.039C292.346 41.2656 299.254 46.0612 305.757 51.2631C312.097 56.3025 318.193 61.667 323.882 67.4379C331.767 75.566 338.919 84.4256 345.259 93.8541C347.535 97.5117 348.104 101.088 346.722 104.583C345.422 108.078 342.739 110.598 338.757 112.305L301.937 127.26C298.116 128.967 293.809 129.211 289.745 127.992C285.518 127.017 281.779 124.659 279.016 121.246C277.39 119.62 275.683 117.832 274.057 116.044C272.432 114.255 270.725 112.467 269.099 110.842C265.604 107.265 261.865 104.014 257.883 100.925C253.981 97.9181 249.917 95.0733 245.691 92.4723C241.383 89.8714 236.912 87.5142 232.279 85.4822C227.646 83.4502 223.013 81.662 218.38 80.0364C208.708 77.029 198.629 75.566 188.55 75.566C172.457 75.566 156.526 78.8985 141.814 85.4822C127.671 92.0659 114.992 101.413 104.506 112.874C93.9399 124.416 85.3242 137.746 79.1468 152.213C72.807 167.169 69.637 183.263 69.7183 199.519C69.5557 215.775 72.807 231.868 79.1468 246.824C85.3242 261.292 93.9399 274.541 104.506 286.164C114.829 297.787 127.509 306.972 141.814 313.068C156.038 320.058 171.644 323.553 188.55 323.553C198.71 323.553 208.708 322.09 218.38 319.082C223.013 317.457 227.646 315.587 232.279 313.637C236.912 311.605 241.383 309.329 245.691 306.646C249.917 304.045 254.062 301.119 257.883 297.949C261.703 294.779 265.442 291.366 269.099 287.708C270.725 286.082 272.432 284.294 274.057 282.506C275.683 280.718 277.39 278.93 279.016 277.304C281.779 273.89 285.518 271.452 289.745 270.314C294.215 269.014 298.279 269.176 301.937 270.802L338.757 285.757C342.739 287.383 345.422 290.065 346.722 293.723C348.104 296.974 347.616 300.632 345.34 304.289ZM104.831 142.541C106.62 140.021 108.489 137.583 110.359 135.145C112.228 132.706 114.26 130.43 116.373 128.317C125.883 118.888 136.937 111.167 149.211 105.721C153.437 103.933 157.745 102.389 162.134 101.169C171.075 98.6496 180.341 97.4304 189.607 97.4304C203.181 97.3491 216.673 100.113 229.191 105.477C253.656 115.962 273.082 135.388 283.567 159.854C294.296 185.132 294.296 213.662 283.567 238.94C278.284 250.969 270.888 262.023 261.784 271.533C252.274 280.637 241.301 288.033 229.191 293.316C216.673 298.762 203.262 301.444 189.607 301.363C180.341 301.363 171.075 300.063 162.134 297.624C153.437 295.267 145.147 291.691 137.344 287.139C133.442 284.863 129.703 282.262 126.208 279.499C122.794 276.735 119.462 273.89 116.373 270.72C112.065 266.331 108.245 261.536 104.831 256.496C103.612 254.789 103.287 252.676 104.019 250.725C104.831 248.775 106.376 247.23 108.327 246.58L128.24 238.533C130.354 237.639 132.629 237.477 134.824 238.127C137.1 238.696 139.132 239.915 140.595 241.785C141.489 242.679 142.383 243.654 143.277 244.629C144.171 245.605 145.065 246.58 145.959 247.474C147.829 249.425 149.861 251.213 151.974 252.839C154.087 254.464 156.282 256.009 158.558 257.39C160.915 258.853 163.353 260.073 165.792 261.129C168.312 262.186 170.831 263.161 173.351 264.055C178.553 265.681 183.999 266.494 189.526 266.494C198.223 266.494 206.839 264.706 214.804 261.129C222.444 257.553 229.272 252.514 234.962 246.336C240.732 240.078 245.365 232.925 248.698 225.122C252.112 216.994 253.819 208.297 253.819 199.519C253.9 190.74 252.112 182.043 248.698 173.997C245.365 166.194 240.732 159.041 234.962 152.782C223.176 140.103 206.757 132.869 189.526 132.625C184.08 132.625 178.634 133.438 173.351 135.063C170.831 135.957 168.312 136.933 165.792 137.989C163.272 139.046 160.834 140.347 158.558 141.728C156.282 143.11 154.087 144.736 151.974 146.443C149.942 148.149 147.91 150.019 145.959 151.97C145.065 152.864 144.171 153.839 143.277 154.814C142.383 155.79 141.489 156.765 140.595 157.659C139.132 159.447 137.1 160.829 134.824 161.398C132.629 162.13 130.354 162.048 128.24 161.154L108.327 153.108C106.295 152.376 104.75 150.832 104.019 148.8C103.287 146.443 103.612 144.248 104.831 142.541ZM229.353 225.366C228.54 226.504 227.646 227.642 226.834 228.78C225.939 229.918 225.045 230.974 224.07 231.95C219.681 236.258 214.641 239.834 209.033 242.354C207.082 243.166 205.132 243.898 203.1 244.467C199.036 245.605 194.728 246.174 190.501 246.174C184.243 246.174 178.065 244.955 172.376 242.435C161.159 237.639 152.218 228.698 147.422 217.482C142.464 205.859 142.464 192.772 147.422 181.149C152.137 169.851 161.078 160.91 172.376 156.196C178.146 153.677 184.324 152.457 190.501 152.457C194.728 152.457 199.036 153.026 203.1 154.164C207.082 155.302 210.903 156.846 214.479 158.96C216.267 160.016 217.974 161.154 219.6 162.455C221.144 163.674 222.688 165.056 224.07 166.438C226.021 168.47 227.809 170.664 229.353 173.021C229.922 173.753 230.085 174.809 229.76 175.704C229.434 176.598 228.703 177.329 227.809 177.654L218.624 181.393C217.649 181.8 216.592 181.881 215.617 181.556C214.56 181.312 213.666 180.743 212.935 179.849C212.528 179.442 212.122 179.036 211.715 178.548C211.309 178.061 210.903 177.654 210.496 177.248C209.602 176.354 208.708 175.541 207.733 174.809C206.757 174.078 205.782 173.346 204.725 172.696C203.669 172.046 202.531 171.477 201.393 170.989C200.255 170.502 199.117 170.014 197.898 169.607C195.459 168.876 193.021 168.47 190.501 168.47C186.518 168.47 182.536 169.282 178.878 170.908C175.383 172.534 172.213 174.891 169.612 177.736C167.011 180.58 164.816 183.913 163.272 187.489C161.728 191.228 160.915 195.211 160.915 199.194C160.915 203.258 161.647 207.24 163.272 210.898C164.816 214.474 166.93 217.807 169.612 220.652C174.977 226.504 182.536 229.836 190.501 229.918C193.021 229.918 195.54 229.511 197.898 228.78C199.036 228.373 200.174 227.886 201.393 227.398C202.531 226.91 203.669 226.341 204.725 225.691C205.782 225.041 206.757 224.309 207.733 223.496C208.708 222.684 209.602 221.871 210.496 220.977C210.903 220.57 211.309 220.164 211.715 219.676C212.122 219.189 212.528 218.782 212.935 218.376C213.585 217.563 214.56 216.913 215.617 216.669C216.592 216.344 217.649 216.344 218.624 216.831L227.728 220.57C228.622 220.895 229.353 221.627 229.678 222.521C230.003 223.578 229.922 224.553 229.353 225.366ZM189.851 184.238C181.56 184.238 174.733 190.984 174.733 199.356C174.733 207.647 181.479 214.474 189.851 214.474C198.142 214.474 204.969 207.728 204.969 199.356C204.969 190.984 198.223 184.238 189.851 184.238Z" fill="#AE094E"/>

</g>
<!-- <defs>
<clipPath id="clip0_1599_116">
<rect width="1787.64" height="387.849" fill="white"/>
</clipPath>
</defs> -->
</svg>
