<svg width="800" height="800" viewBox="0 0 800 800" fill="none" xmlns="http://www.w3.org/2000/svg">
<circle cx="400" cy="400" r="400" fill="white"/>
<g filter="url(#filter0_d_12_2)">
<path d="M423.87 471.7C409.143 471.7 393.79 467.783 377.81 459.95C361.83 451.803 343.5 436.92 322.82 415.3L224.12 311.9V467H181.82V213.2C181.82 197.22 179.627 185.47 175.24 177.95C170.853 170.117 162.08 166.2 148.92 166.2H139.52V156.8H181.82C193.413 156.8 202.03 158.367 207.67 161.5C213.623 164.32 217.853 169.647 220.36 177.48C222.867 185.313 224.12 197.22 224.12 213.2V304.85L322.82 206.15L332.22 196.28C340.993 187.193 348.357 180.143 354.31 175.13C360.263 169.803 367.313 165.417 375.46 161.97C383.607 158.523 392.693 156.8 402.72 156.8H426.22V168.55C413.06 168.55 401.623 170.9 391.91 175.6C382.197 179.987 370.917 188.603 358.07 201.45L266.42 293.1L374.52 405.9C388.307 420 402.25 431.907 416.35 441.62C430.45 451.02 443.14 456.503 454.42 458.07V467C445.02 470.133 434.837 471.7 423.87 471.7Z" fill="#5C637C"/>
<path d="M377.81 459.95L377.356 460.841L377.363 460.844L377.37 460.848L377.81 459.95ZM322.82 415.3L322.097 415.99L322.097 415.991L322.82 415.3ZM224.12 311.9L224.843 311.21L223.12 309.404V311.9H224.12ZM224.12 467V468H225.12V467H224.12ZM181.82 467H180.82V468H181.82V467ZM175.24 177.95L174.367 178.439L174.372 178.446L174.376 178.454L175.24 177.95ZM139.52 166.2H138.52V167.2H139.52V166.2ZM139.52 156.8V155.8H138.52V156.8H139.52ZM207.67 161.5L207.184 162.374L207.213 162.39L207.242 162.404L207.67 161.5ZM220.36 177.48L221.312 177.175L221.312 177.175L220.36 177.48ZM224.12 304.85H223.12V307.264L224.827 305.557L224.12 304.85ZM322.82 206.15L323.527 206.857L323.536 206.848L323.544 206.84L322.82 206.15ZM332.22 196.28L331.501 195.585L331.496 195.59L332.22 196.28ZM354.31 175.13L354.954 175.895L354.966 175.885L354.977 175.875L354.31 175.13ZM375.46 161.97L375.07 161.049L375.07 161.049L375.46 161.97ZM426.22 156.8H427.22V155.8H426.22V156.8ZM426.22 168.55V169.55H427.22V168.55H426.22ZM391.91 175.6L392.322 176.511L392.334 176.506L392.346 176.5L391.91 175.6ZM358.07 201.45L358.777 202.157L358.777 202.157L358.07 201.45ZM266.42 293.1L265.713 292.393L265.021 293.085L265.698 293.792L266.42 293.1ZM374.52 405.9L373.798 406.592L373.805 406.599L374.52 405.9ZM416.35 441.62L415.783 442.444L415.789 442.448L415.795 442.452L416.35 441.62ZM454.42 458.07H455.42V457.199L454.558 457.08L454.42 458.07ZM454.42 467L454.736 467.949L455.42 467.721V467H454.42ZM423.87 470.7C409.324 470.7 394.121 466.832 378.25 459.052L377.37 460.848C393.459 468.735 408.962 472.7 423.87 472.7V470.7ZM378.264 459.059C362.429 450.986 344.19 436.194 323.543 414.609L322.097 415.991C342.81 437.646 361.231 452.62 377.356 460.841L378.264 459.059ZM323.543 414.61L224.843 311.21L223.397 312.59L322.097 415.99L323.543 414.61ZM223.12 311.9V467H225.12V311.9H223.12ZM224.12 466H181.82V468H224.12V466ZM182.82 467V213.2H180.82V467H182.82ZM182.82 213.2C182.82 197.169 180.627 185.2 176.104 177.446L174.376 178.454C178.627 185.74 180.82 197.271 180.82 213.2H182.82ZM176.113 177.461C171.474 169.178 162.256 165.2 148.92 165.2V167.2C161.904 167.2 170.233 171.055 174.367 178.439L176.113 177.461ZM148.92 165.2H139.52V167.2H148.92V165.2ZM140.52 166.2V156.8H138.52V166.2H140.52ZM139.52 157.8H181.82V155.8H139.52V157.8ZM181.82 157.8C193.359 157.8 201.769 159.366 207.184 162.374L208.156 160.626C202.291 157.368 193.467 155.8 181.82 155.8V157.8ZM207.242 162.404C212.886 165.077 216.963 170.145 219.408 177.785L221.312 177.175C218.744 169.148 214.361 163.563 208.098 160.596L207.242 162.404ZM219.408 177.785C221.865 185.466 223.12 197.245 223.12 213.2H225.12C225.12 197.195 223.868 185.161 221.312 177.175L219.408 177.785ZM223.12 213.2V304.85H225.12V213.2H223.12ZM224.827 305.557L323.527 206.857L322.113 205.443L223.413 304.143L224.827 305.557ZM323.544 206.84L332.944 196.97L331.496 195.59L322.096 205.46L323.544 206.84ZM332.939 196.975C341.702 187.899 349.038 180.877 354.954 175.895L353.666 174.365C347.675 179.41 340.285 186.487 331.501 195.585L332.939 196.975ZM354.977 175.875C360.84 170.629 367.794 166.299 375.85 162.891L375.07 161.049C366.833 164.534 359.687 168.977 353.643 174.385L354.977 175.875ZM375.85 162.891C383.858 159.503 392.809 157.8 402.72 157.8V155.8C392.577 155.8 383.356 157.544 375.07 161.049L375.85 162.891ZM402.72 157.8H426.22V155.8H402.72V157.8ZM425.22 156.8V168.55H427.22V156.8H425.22ZM426.22 167.55C412.942 167.55 401.35 169.921 391.474 174.7L392.346 176.5C401.897 171.879 413.178 169.55 426.22 169.55V167.55ZM391.498 174.689C381.624 179.148 370.243 187.862 357.363 200.743L358.777 202.157C371.59 189.344 382.769 180.825 392.322 176.511L391.498 174.689ZM357.363 200.743L265.713 292.393L267.127 293.807L358.777 202.157L357.363 200.743ZM265.698 293.792L373.798 406.592L375.242 405.208L267.142 292.408L265.698 293.792ZM373.805 406.599C387.63 420.738 401.622 432.689 415.783 442.444L416.917 440.796C402.878 431.125 388.983 419.262 375.235 405.201L373.805 406.599ZM415.795 442.452C429.965 451.898 442.798 457.465 454.282 459.06L454.558 457.08C443.482 455.541 430.935 450.142 416.905 440.788L415.795 442.452ZM453.42 458.07V467H455.42V458.07H453.42ZM454.104 466.051C444.816 469.147 434.741 470.7 423.87 470.7V472.7C434.933 472.7 445.224 471.119 454.736 467.949L454.104 466.051Z" fill="#5C637C"/>
</g>
<g filter="url(#filter1_d_12_2)">
<path d="M455.82 381.2C455.82 365.22 453.627 353.47 449.24 345.95C444.853 338.117 436.08 334.2 422.92 334.2H413.52V324.8H455.82C467.413 324.8 476.03 326.367 481.67 329.5C487.623 332.32 491.853 337.647 494.36 345.48C496.867 353.313 498.12 365.22 498.12 381.2V616.2H664.97V635H455.82V381.2Z" fill="#5C637C"/>
<path d="M449.24 345.95L448.368 346.439L448.372 346.446L448.376 346.454L449.24 345.95ZM413.52 334.2H412.52V335.2H413.52V334.2ZM413.52 324.8V323.8H412.52V324.8H413.52ZM481.67 329.5L481.184 330.374L481.213 330.39L481.242 330.404L481.67 329.5ZM494.36 345.48L495.312 345.175L495.312 345.175L494.36 345.48ZM498.12 616.2H497.12V617.2H498.12V616.2ZM664.97 616.2H665.97V615.2H664.97V616.2ZM664.97 635V636H665.97V635H664.97ZM455.82 635H454.82V636H455.82V635ZM456.82 381.2C456.82 365.169 454.627 353.2 450.104 345.446L448.376 346.454C452.627 353.74 454.82 365.271 454.82 381.2H456.82ZM450.113 345.461C445.474 337.178 436.256 333.2 422.92 333.2V335.2C435.904 335.2 444.233 339.055 448.368 346.439L450.113 345.461ZM422.92 333.2H413.52V335.2H422.92V333.2ZM414.52 334.2V324.8H412.52V334.2H414.52ZM413.52 325.8H455.82V323.8H413.52V325.8ZM455.82 325.8C467.359 325.8 475.769 327.366 481.184 330.374L482.156 328.626C476.291 325.368 467.467 323.8 455.82 323.8V325.8ZM481.242 330.404C486.886 333.077 490.963 338.145 493.408 345.785L495.312 345.175C492.744 337.148 488.361 331.563 482.098 328.596L481.242 330.404ZM493.408 345.785C495.865 353.466 497.12 365.245 497.12 381.2H499.12C499.12 365.195 497.868 353.161 495.312 345.175L493.408 345.785ZM497.12 381.2V616.2H499.12V381.2H497.12ZM498.12 617.2H664.97V615.2H498.12V617.2ZM663.97 616.2V635H665.97V616.2H663.97ZM664.97 634H455.82V636H664.97V634ZM456.82 635V381.2H454.82V635H456.82Z" fill="#5C637C"/>
</g>
<defs>
<filter id="filter0_d_12_2" x="135.52" y="156.8" width="322.9" height="322.9" filterUnits="userSpaceOnUse" color-interpolation-filters="sRGB">
<feFlood flood-opacity="0" result="BackgroundImageFix"/>
<feColorMatrix in="SourceAlpha" type="matrix" values="0 0 0 0 0 0 0 0 0 0 0 0 0 0 0 0 0 0 127 0" result="hardAlpha"/>
<feOffset dy="4"/>
<feGaussianBlur stdDeviation="2"/>
<feComposite in2="hardAlpha" operator="out"/>
<feColorMatrix type="matrix" values="0 0 0 0 0 0 0 0 0 0 0 0 0 0 0 0 0 0 0.25 0"/>
<feBlend mode="normal" in2="BackgroundImageFix" result="effect1_dropShadow_12_2"/>
<feBlend mode="normal" in="SourceGraphic" in2="effect1_dropShadow_12_2" result="shape"/>
</filter>
<filter id="filter1_d_12_2" x="409.52" y="324.8" width="259.45" height="318.2" filterUnits="userSpaceOnUse" color-interpolation-filters="sRGB">
<feFlood flood-opacity="0" result="BackgroundImageFix"/>
<feColorMatrix in="SourceAlpha" type="matrix" values="0 0 0 0 0 0 0 0 0 0 0 0 0 0 0 0 0 0 127 0" result="hardAlpha"/>
<feOffset dy="4"/>
<feGaussianBlur stdDeviation="2"/>
<feComposite in2="hardAlpha" operator="out"/>
<feColorMatrix type="matrix" values="0 0 0 0 0 0 0 0 0 0 0 0 0 0 0 0 0 0 0.25 0"/>
<feBlend mode="normal" in2="BackgroundImageFix" result="effect1_dropShadow_12_2"/>
<feBlend mode="normal" in="SourceGraphic" in2="effect1_dropShadow_12_2" result="shape"/>
</filter>
</defs>
</svg>
