<svg width="162" height="162" viewBox="0 0 162 162" fill="none" xmlns="http://www.w3.org/2000/svg">
<path d="M30 20L49.0526 53H10.9474L30 20Z" fill="#129F84"/>
<path d="M49.1051 53.0526L30.0525 86.0526L11 53.0526L49.1051 53.0526Z" fill="#26B898"/>
<path d="M68.1051 86.0526L30 86.0526L49.0525 53.0526L68.1051 86.0526Z" fill="#884C9D"/>
<path d="M68.1051 86.0526L49.0525 119.053L30 86.0526L68.1051 86.0526Z" fill="#AC7AB4"/>
<path d="M150.105 19.0526L131.053 52.0526L112 19.0526L150.105 19.0526Z" fill="#0C1C3C"/>
<path d="M131.105 52.0526L112.053 85.0526L93 52.0526L131.105 52.0526Z" fill="#2880BA"/>
<path d="M112.105 85.0526L93.0525 118.053L74 85.0526L112.105 85.0526Z" fill="#C03C2B"/>
<path d="M93.1051 118.053L74.0525 151.053L55 118.053L93.1051 118.053Z" fill="#F09B21"/>
<path d="M112 19L131.053 52H92.9474L112 19Z" fill="#3E4965"/>
<path d="M93 52L112.053 85H73.9474L93 52Z" fill="#3B96D2"/>
<path d="M74 85L93.0526 118H54.9474L74 85Z" fill="#E54C3B"/>
<path d="M55 118L74.0526 151H35.9474L55 118Z" fill="#EFC31A"/>
</svg>
